<svg xmlns="http://www.w3.org/2000/svg" width="256" height="256" viewBox="0 0 256 256">   <path d="m183.9 7.66c-35.12 0-62.48 15.67-62.48 35.56v20.65c0 30.9-24.65 58.77-57.27 58.77h-20.8c-19.93 0-34.39 27.45-34.39 62.65 0 32.89 14.17 62.17 34.39 62.17h13.65c97 0 190.5-80.47 190.5-188.4v-15.89c0-19.89-25.41-35.56-63.56-35.56z" fill="#F0CC78"/>   <path d="m247.5 43.22c0 16.89-22.48 33.77-63.55 33.77-35.12 0-62.48-15.67-62.48-33.77s23.3-35.56 62.48-35.56c38.15 0 63.55 15.67 63.55 35.56z" fill="#F4DDA4"/>   <path d="m247 46.01c-2.58 12.53-14.83 22.46-23.43 24.1-5 78.62-69.82 152.8-153.4 153.8-6.32 13.78-15.63 23.55-26.85 23.55h13.65c97 0 191.7-85.68 190-201.4z" fill="#D9AB59"/>   <path d="m78.12 166.8c-5.15-24.46-17.83-44.21-34.73-44.21-19.93 0-34.39 27.45-34.39 62.65 0 32.89 14.17 62.17 34.39 62.17 22.43 0 38.32-31.84 34.73-67.4-0.33-3.37 0.77-9.65 0-13.21z" fill="#F4DDA4"/>   <path d="m65.48 177.8c-2.7-20.74-12.07-36.07-22.87-36.07-12.7 0-22.59 20.25-22.72 44.16-0.13 21.3 9.84 41.59 22.72 41.59 13.02 0 23.37-21.07 22.87-41.59-0.06-2.55 0.35-5.64 0-8.09z" fill="#E2B15A"/>   <path d="m183.9 19.53c-25.66 0-43.87 11.11-43.87 23.69 0 11.76 17.76 21.34 43.87 21.34 23.9 0 43.18-10.84 43.18-21.95 0-11.47-18.68-23.08-43.18-23.08z" fill="#E2B15A"/>   <path d="m92.67 146.2c-4.66 0-8.2-5.07-6.48-9.78 0.89-2.59 2.8-3.82 4.22-4.34 19-7.32 34.77-25.08 40.85-42.61 1.67-4.94 7.45-6.29 11.52-2.95 3.34 2.78 3.16 6.7 1.84 9.48-9.71 23.52-26.56 40.37-49.5 49.55-0.8 0.37-1.63 0.65-2.45 0.65z" fill="#F8E5B5"/> </svg>
